<?xml version="1.0" encoding="utf-8"?>
<!-- Generator: Adobe Illustrator 16.2.1, SVG Export Plug-In . SVG Version: 6.00 Build 0)  -->
<!DOCTYPE svg PUBLIC "-//W3C//DTD SVG 1.1//EN" "http://www.w3.org/Graphics/SVG/1.1/DTD/svg11.dtd" [
	<!ENTITY st0 "fill:#FFFFFF;">
]>
<svg version="1.1" id="Layer_1" xmlns="http://www.w3.org/2000/svg" xmlns:xlink="http://www.w3.org/1999/xlink" x="0px" y="0px"
	 width="60px" height="24px" viewBox="0 0 60 24" style="enable-background:new 0 0 60 24;" xml:space="preserve">
<path style="&st0;" d="M0,24.13V-0.154h60V24.13H0z M1.672,21.612h4.866L9.22,8.259h0.056l4.037,13.354h6.414l4.092-19.299h-4.866
	l-2.71,13.383h-0.055L12.233,2.313H5.792L1.672,21.612z M21.714,21.612h5.17l1.715-8.267h6.11l-1.715,8.267h5.171l4.009-19.299
	h-5.17l-1.521,7.383h-6.111l1.521-7.383h-5.171L21.714,21.612z M57.021,2.839c-1.3-0.607-3.539-0.857-5.917-0.857
	c-4.23,0-8.599,1.494-8.599,6.471c0,5.446,7.492,4.285,7.492,7.382c0,1.991-2.516,2.295-4.119,2.295
	c-1.687,0-3.732-0.442-4.756-1.106l-1.217,3.927c1.687,0.525,3.982,0.995,5.973,0.995c4.479,0,9.429-1.383,9.429-6.719
	c0-5.861-7.493-4.838-7.493-7.576c0-1.548,1.658-1.852,3.705-1.852c1.907,0,3.262,0.414,4.258,0.885L57.021,2.839z"/>
</svg>
